<svg width="100" height="100" viewBox="0 0 100 100" fill="none" xmlns="http://www.w3.org/2000/svg">
<path d="M37 92.5H62.875V85.5L67.375 83.625C73.5417 81.0417 78.5833 77.6667 82.5 73.5C86.4167 69.3333 89.2083 64.7917 90.875 59.875H9C10.6667 64.7917 13.5 69.3542 17.5 73.5625C21.5 77.7708 26.5 81.125 32.5 83.625L37 85.5V92.5ZM29.5 100V90.25C20.75 86.75 13.7917 81.6667 8.625 75C3.45833 68.3333 0.583333 60.8333 0 52.5H9V10.125L100 0V6.25L40.25 12.875V23.75H100V30H40.25V52.5H99.875C99.375 60.8333 96.5 68.3333 91.25 75C86 81.6667 79.0417 86.75 70.375 90.25V100H29.5ZM27.75 23.75H34V13.5L27.75 14.25V23.75ZM15.25 23.75H21.5V14.875L15.25 15.625V23.75ZM27.75 52.5H34V30H27.75V52.5ZM15.25 52.5H21.5V30H15.25V52.5Z" fill="#FECE00"/>
</svg>
