<svg width="100" height="100" viewBox="0 0 100 100" fill="none" xmlns="http://www.w3.org/2000/svg">
<path d="M0 39.1667V33.6111C0 23.5185 4.375 15.3935 13.125 9.23611C21.875 3.0787 34.1667 0 50 0C65.8333 0 78.125 3.0787 86.875 9.23611C95.625 15.3935 100 23.5185 100 33.6111V39.1667H0ZM7.75 30.8333H92.25C92 24.4444 87.9792 19.0972 80.1875 14.7917C72.3958 10.4861 62.3333 8.33333 50 8.33333C37.6667 8.33333 27.5625 10.4861 19.6875 14.7917C11.8125 19.0972 7.83333 24.4444 7.75 30.8333ZM0 63.6111V55.2778C2.75 55.2778 5.14583 54.2593 7.1875 52.2222C9.22917 50.1852 12.5 49.1667 17 49.1667C21.5 49.1667 24.4792 50.1852 25.9375 52.2222C27.3958 54.2593 29.8333 55.2778 33.25 55.2778C36.6667 55.2778 39.1875 54.2593 40.8125 52.2222C42.4375 50.1852 45.5 49.1667 50 49.1667C54.5 49.1667 57.5625 50.1852 59.1875 52.2222C60.8125 54.2593 63.3333 55.2778 66.75 55.2778C70.1667 55.2778 72.6042 54.2593 74.0625 52.2222C75.5208 50.1852 78.5 49.1667 83 49.1667C87.5 49.1667 90.7708 50.1852 92.8125 52.2222C94.8542 54.2593 97.25 55.2778 100 55.2778V63.6111C95.5 63.6111 92.3958 62.5926 90.6875 60.5556C88.9792 58.5185 86.4167 57.5 83 57.5C79.5833 57.5 77.1458 58.5185 75.6875 60.5556C74.2292 62.5926 71.25 63.6111 66.75 63.6111C62.25 63.6111 59.1875 62.5926 57.5625 60.5556C55.9375 58.5185 53.4167 57.5 50 57.5C46.5833 57.5 44.0625 58.5185 42.4375 60.5556C40.8125 62.5926 37.75 63.6111 33.25 63.6111C28.75 63.6111 25.7708 62.5926 24.3125 60.5556C22.8542 58.5185 20.4167 57.5 17 57.5C13.5833 57.5 11.0208 58.5185 9.3125 60.5556C7.60417 62.5926 4.5 63.6111 0 63.6111ZM7.5 100C5.5 100 3.75 99.1667 2.25 97.5C0.75 95.8333 0 93.8889 0 91.6667V73.8889H100V91.6667C100 93.8889 99.25 95.8333 97.75 97.5C96.25 99.1667 94.5 100 92.5 100H7.5ZM7.5 91.6667H92.5V82.2222H7.5V91.6667Z" fill="#FECE00"/>
</svg>
